<svg xmlns="http://www.w3.org/2000/svg" viewBox="0 0 512 512" width="100%" height="100%">
  <defs>
    <!-- Background Gradient -->
    <linearGradient id="bgGrad" x1="0%" y1="0%" x2="100%" y2="100%">
      <stop offset="0%" stop-color="#081426" />
      <stop offset="50%" stop-color="#0B1E36" />
      <stop offset="100%" stop-color="#112B4D" />
    </linearGradient>

    <!-- Glowing House Gradient -->
    <linearGradient id="haGlow" x1="0%" y1="0%" x2="100%" y2="100%">
      <stop offset="0%" stop-color="#00E5FF" />
      <stop offset="100%" stop-color="#03A9F4" />
    </linearGradient>

    <!-- Train Body Gradient -->
    <linearGradient id="trainBody" x1="0%" y1="0%" x2="0%" y2="100%">
      <stop offset="0%" stop-color="#F2F2F2" />
      <stop offset="40%" stop-color="#D9D9D9" />
      <stop offset="100%" stop-color="#999999" />
    </linearGradient>

    <!-- Train Nose Gradient -->
    <linearGradient id="trainNose" x1="0%" y1="0%" x2="0%" y2="100%">
      <stop offset="0%" stop-color="#005A87" />
      <stop offset="70%" stop-color="#003D5C" />
      <stop offset="100%" stop-color="#002336" />
    </linearGradient>

    <!-- Headlight Beam Gradient -->
    <radialGradient id="lightBeam" cx="50%" cy="0%" r="100%">
      <stop offset="0%" stop-color="#FFFFE0" stop-opacity="0.6" />
      <stop offset="50%" stop-color="#FFFFA0" stop-opacity="0.2" />
      <stop offset="100%" stop-color="#FFFFA0" stop-opacity="0" />
    </radialGradient>

    <!-- Track Shadow/Glow -->
    <linearGradient id="trackGrad" x1="0%" y1="0%" x2="0%" y2="100%">
      <stop offset="0%" stop-color="#1A2D42" />
      <stop offset="100%" stop-color="#0E1A29" />
    </linearGradient>

    <!-- Drop Shadow Filter for Train -->
    <filter id="shadow" x="-20%" y="-20%" width="140%" height="140%">
      <feDropShadow dx="0" dy="12" stdDeviation="16" flood-color="#000000" flood-opacity="0.6" />
    </filter>

    <filter id="glow" x="-20%" y="-20%" width="140%" height="140%">
      <feGaussianBlur stdDeviation="8" result="blur" />
      <feComposite in="SourceGraphic" in2="blur" operator="over" />
    </filter>
  </defs>

  <!-- Background -->
  <rect width="512" height="512" rx="112" fill="url(#bgGrad)" />

  <!-- Grid lines / speed lines in background (subtle) -->
  <path d="M 0,150 L 512,150 M 0,300 L 512,300" stroke="#162E4E" stroke-width="2" opacity="0.3" />
  <path d="M 150,0 L 150,512 M 362,0 L 362,512" stroke="#162E4E" stroke-width="2" opacity="0.3" />

  <!-- Home Assistant Glowing House Outline in Background -->
  <path d="M 256,70 L 420,195 L 365,195 L 365,395 L 147,395 L 147,195 L 92,195 Z" 
        fill="none" 
        stroke="url(#haGlow)" 
        stroke-width="16" 
        stroke-linejoin="round" 
        stroke-linecap="round"
        opacity="0.85"
        filter="url(#glow)" />

  <!-- Home Assistant Internal Nodes (Connected dots in the top area of the house) -->
  <line x1="256" y1="125" x2="190" y2="180" stroke="#00E5FF" stroke-width="4" opacity="0.8" />
  <line x1="256" y1="125" x2="322" y2="180" stroke="#00E5FF" stroke-width="4" opacity="0.8" />
  <line x1="190" y1="180" x2="256" y2="215" stroke="#00E5FF" stroke-width="4" opacity="0.8" />
  <line x1="322" y1="180" x2="256" y2="215" stroke="#00E5FF" stroke-width="4" opacity="0.8" />
  
  <circle cx="256" cy="125" r="10" fill="#FFFFFF" filter="url(#glow)" />
  <circle cx="190" cy="180" r="8" fill="#00E5FF" />
  <circle cx="322" cy="180" r="8" fill="#00E5FF" />
  <circle cx="256" cy="215" r="8" fill="#00E5FF" />

  <!-- Train Tracks in Perspective -->
  <!-- Ties (Sleepers) -->
  <polygon points="180,415 332,415 338,427 174,427" fill="url(#trackGrad)" stroke="#2C4059" stroke-width="1.5" />
  <polygon points="144,440 368,440 376,456 136,456" fill="url(#trackGrad)" stroke="#2C4059" stroke-width="2" />
  <polygon points="90,475 422,475 432,497 80,497" fill="url(#trackGrad)" stroke="#2C4059" stroke-width="2.5" />

  <!-- Rails -->
  <polygon points="216,400 220,400 120,512 110,512" fill="#7A8B9E" />
  <polygon points="296,400 292,400 392,512 402,512" fill="#7A8B9E" />
  <polygon points="219,400 222,400 135,512 125,512" fill="#B3C3D4" />
  <polygon points="293,400 290,400 377,512 387,512" fill="#B3C3D4" />

  <!-- Headlight Beam (shining down onto tracks, placed under the train) -->
  <polygon points="256,310 60,512 452,512" fill="url(#lightBeam)" />

  <!-- Sleek Amtrak-style Train (Front View) -->
  <g filter="url(#shadow)">
    <!-- Base / Plow / Skirt -->
    <path d="M 180,390 L 332,390 L 336,410 L 290,418 L 222,418 L 176,410 Z" fill="#1C1C1C" />
    <path d="M 190,402 L 322,402 L 318,410 L 194,410 Z" fill="#C01A26" /> <!-- Red Accent stripe at bottom -->

    <!-- Main Train Body Structure -->
    <path d="M 182,235 C 182,235 256,220 256,220 C 256,220 330,235 330,235 L 340,320 L 335,390 L 177,390 L 172,320 Z" fill="url(#trainBody)" />
    
    <!-- Nose / Center Panel (Amtrak Blue) -->
    <path d="M 196,255 L 316,255 L 326,320 L 296,380 L 216,380 L 186,320 Z" fill="url(#trainNose)" />

    <!-- Windshield -->
    <path d="M 204,260 L 308,260 L 302,285 L 210,285 Z" fill="#0B0E14" />
    <!-- Windshield divider & reflection -->
    <path d="M 254,260 L 258,260 L 258,285 L 254,285 Z" fill="#2C3540" />
    <polygon points="212,263 245,263 235,282 212,282" fill="#FFFFFF" opacity="0.12" />
    <polygon points="262,263 295,263 285,282 262,282" fill="#FFFFFF" opacity="0.12" />

    <!-- Sleek Side Panels/Design Elements (Silver/White highlights) -->
    <path d="M 184,242 L 194,242 L 198,320 L 188,320 Z" fill="#FFFFFF" opacity="0.8" />
    <path d="M 328,242 L 318,242 L 314,320 L 324,320 Z" fill="#FFFFFF" opacity="0.8" />

    <!-- Red and Blue Accent Stripes on upper sides -->
    <path d="M 185,246 L 194,246 L 195,258 L 186,258 Z" fill="#C01A26" />
    <path d="M 327,246 L 318,246 L 317,258 L 326,258 Z" fill="#C01A26" />

    <path d="M 186,264 L 195,264 L 196,290 L 187,290 Z" fill="#004F71" />
    <path d="M 326,264 L 317,264 L 316,290 L 325,290 Z" fill="#004F71" />

    <!-- Nose details / Chevron reference -->
    <!-- Stylized Chevron shape in silver on the blue nose -->
    <path d="M 230,345 L 256,330 L 282,345 L 272,352 L 256,342 L 240,352 Z" fill="#FFFFFF" opacity="0.9" />
    <path d="M 230,357 L 256,342 L 282,357 L 272,364 L 256,354 L 240,364 Z" fill="#FFFFFF" opacity="0.6" />

    <!-- Center Headlight (High-intensity LED) -->
    <rect x="244" y="304" width="24" height="12" rx="4" fill="#1C1C1C" />
    <circle cx="256" cy="310" r="5" fill="#FFFFFF" filter="url(#glow)" />
    <circle cx="256" cy="310" r="2.5" fill="#FFFFE0" />

    <!-- Ditch Lights (Bottom corner lights, typical of US locomotives) -->
    <circle cx="210" cy="396" r="6" fill="#222" />
    <circle cx="210" cy="396" r="4.5" fill="#FFF" filter="url(#glow)" />
    <circle cx="210" cy="396" r="2" fill="#FFF" />

    <circle cx="302" cy="396" r="6" fill="#222" />
    <circle cx="302" cy="396" r="4.5" fill="#FFF" filter="url(#glow)" />
    <circle cx="302" cy="396" r="2" fill="#FFF" />

    <!-- Cabin Roof/Vent Details -->
    <rect x="236" y="224" width="40" height="4" fill="#333" opacity="0.7" />
  </g>
</svg>
